<svg width="161" height="32" viewBox="0 0 161 32" fill="none" xmlns="http://www.w3.org/2000/svg">
<path d="M13.8223 27.3473C11.3849 24.9158 10.1689 21.1298 10.1689 16C10.1689 10.8702 11.3743 7.03626 13.7903 4.62069C16.2063 2.21045 19.9983 1 25.1716 1C30.3449 1 34.137 2.21045 36.5476 4.62069C38.9636 7.03626 40.169 10.8276 40.169 16C40.169 21.1724 38.9583 24.9637 36.5476 27.3793C34.1316 29.7949 30.3396 31 25.1716 31C20.0036 31 16.2543 29.7842 13.8223 27.3473Z" fill="#1AA4D9"/>
<path d="M28.1152 26.4465C32.2574 26.4465 35.6152 23.0886 35.6152 18.9465C35.6152 14.8043 32.2574 11.4465 28.1152 11.4465C23.9731 11.4465 20.6152 14.8043 20.6152 18.9465C20.6152 23.0886 23.9731 26.4465 28.1152 26.4465Z" fill="white"/>
<path d="M64.8439 15.625C65.3422 16.3 65.5886 17.0607 65.5886 17.9018C65.5886 19.3589 65.1386 20.4785 64.2386 21.2553C63.3386 22.0375 62.0475 22.4232 60.3707 22.4232H52.1689V6.35712H59.4707C61.3404 6.35712 62.6957 6.68926 63.5314 7.3589C64.3725 8.02855 64.7904 9.10533 64.7904 10.6C64.7904 11.3553 64.6243 12.0678 64.2868 12.7321C63.9547 13.4018 63.5207 13.8893 62.9904 14.2V14.3553C63.7297 14.5268 64.3457 14.95 64.8439 15.6303V15.625ZM59.4332 10.316C59.2886 10.1607 58.9993 10.0857 58.5707 10.0857H57.3118V12.475H58.5707C58.9993 12.475 59.2886 12.3946 59.4332 12.2285C59.5779 12.0678 59.6529 11.7464 59.6529 11.2643C59.6529 10.7821 59.5779 10.466 59.4332 10.3107V10.316ZM60.0493 18.416C60.21 18.2285 60.2957 17.8857 60.2957 17.3875C60.2957 16.8893 60.2207 16.5464 60.0654 16.3589C59.91 16.1714 59.6207 16.075 59.1922 16.075H57.3172V18.7H59.1707C59.5993 18.7 59.8939 18.6035 60.06 18.416H60.0493Z" fill="black"/>
<path d="M72.9706 18.9303L72.7403 22.4018C71.6421 22.675 70.6939 22.8143 69.8849 22.8143C68.7546 22.8143 67.9188 22.5893 67.3778 22.1339C66.8367 21.6786 66.5688 20.9714 66.5688 20.0125V5.71427L71.7117 5.32855V18.7536C72.1563 18.8393 72.5796 18.8982 72.9706 18.9357V18.9303Z" fill="black"/>
<path d="M86.4172 22.4286H83.8458L82.5601 21.1428C81.0493 22.2571 79.3351 22.8143 77.4172 22.8143C76.0779 22.8143 75.1029 22.5196 74.4868 21.925C73.8708 21.3357 73.5601 20.3875 73.5601 19.0857V9.57141H78.7029V19.3428H80.2726C80.6315 19.3428 80.8886 19.2893 81.044 19.1768C81.1993 19.0643 81.2743 18.8821 81.2743 18.625V9.57141H86.4172V22.4286Z" fill="black"/>
<path d="M99.5583 18.3893L100.174 21.9357C98.4066 22.5196 96.5048 22.8089 94.4637 22.8089C92.1333 22.8089 90.4137 22.2571 89.3101 21.1482C88.2066 20.0393 87.6494 18.325 87.6494 15.9946C87.6494 13.6643 88.1958 11.9232 89.2941 10.825C90.3923 9.72676 92.1119 9.18033 94.4637 9.18033C96.0387 9.18033 97.2601 9.31426 98.1173 9.57676C98.9744 9.84461 99.5851 10.2893 99.9548 10.916C100.324 11.5428 100.507 12.4214 100.507 13.5518C100.507 14.5964 100.265 15.4268 99.7887 16.0482C99.3066 16.6643 98.5405 17.1089 97.4851 17.3875C96.4298 17.6607 94.9941 17.8 93.178 17.8V18.9571C93.5369 19.0268 94.1369 19.0589 94.978 19.0589C96.403 19.0589 97.9244 18.8339 99.553 18.3893H99.5583ZM93.5691 13.1178C93.3119 13.2571 93.1833 13.5143 93.1833 13.8893V15.2285H94.1101C94.7798 15.2285 95.2405 15.1535 95.4976 14.9982C95.7548 14.8428 95.8833 14.5589 95.8833 14.1518V12.9196H94.9566C94.2869 12.9196 93.8262 12.9893 93.5691 13.1232V13.1178Z" fill="black"/>
<path d="M102.928 10.2411C103.855 9.5393 105.301 9.18573 107.273 9.18573C109.244 9.18573 111.098 9.37323 112.828 9.75359L112.239 13.3C111.414 13.075 110.412 12.9679 109.228 12.9679C108.339 12.9679 107.616 13.0536 107.069 13.225V14.1518C108.666 14.3232 109.924 14.5697 110.851 14.8964C111.778 15.2232 112.448 15.6679 112.855 16.2357C113.267 16.8036 113.471 17.5322 113.471 18.4214C113.471 19.9482 112.951 21.0625 111.917 21.7643C110.878 22.4661 109.239 22.8197 106.994 22.8197C105.998 22.8197 105.001 22.7447 103.999 22.5893C102.998 22.434 102.119 22.2197 101.364 21.9464L102.007 18.2447C103.223 18.775 104.594 19.0429 106.121 19.0429C106.549 19.0429 107.16 18.9732 107.948 18.8393V17.8375C106.249 17.6661 104.948 17.4304 104.037 17.1304C103.126 16.8304 102.483 16.4018 102.108 15.8447C101.733 15.2875 101.541 14.5214 101.541 13.5411C101.541 12.0518 102.001 10.9536 102.928 10.2518V10.2411Z" fill="black"/>
<path d="M126.494 10.8197C127.378 11.9072 127.817 13.6375 127.817 16C127.817 18.3625 127.378 20.0929 126.494 21.1804C125.61 22.2679 124.212 22.8143 122.289 22.8143C121.314 22.8143 120.456 22.6697 119.717 22.375V26.2857L114.574 26.6714V9.57144H117.146L118.099 10.8572C118.988 9.74287 120.387 9.18573 122.289 9.18573C124.19 9.18573 125.61 9.73216 126.494 10.8197ZM122.289 13.0429H120.719C120.344 13.0429 120.081 13.0964 119.937 13.1982C119.792 13.3 119.717 13.4875 119.717 13.7661V18.9625H121.287C121.662 18.9625 121.924 18.9089 122.069 18.8072C122.214 18.7054 122.289 18.5179 122.289 18.2393V13.0429Z" fill="black"/>
<path d="M130.196 21.1536C129.092 20.05 128.535 18.3304 128.535 16C128.535 13.6697 129.082 11.9286 130.18 10.8304C131.278 9.73216 132.998 9.18573 135.349 9.18573C137.701 9.18573 139.421 9.73216 140.519 10.8304C141.617 11.9286 142.164 13.6482 142.164 16C142.164 18.3518 141.617 20.0714 140.519 21.1697C139.421 22.2679 137.701 22.8143 135.349 22.8143C132.998 22.8143 131.299 22.2625 130.196 21.1536ZM135.633 18.9572C136.008 18.9572 136.271 18.9036 136.416 18.8018C136.56 18.7 136.635 18.5125 136.635 18.2339V13.0375H135.066C134.691 13.0375 134.428 13.0911 134.283 13.1929C134.139 13.2947 134.064 13.4822 134.064 13.7607V18.9572H135.633Z" fill="black"/>
<path d="M149.058 12.8874V18.7482C149.557 18.8339 150.06 18.8928 150.575 18.9303L150.344 22.4017C149.198 22.6749 148.158 22.8142 147.232 22.8142C146.101 22.8142 145.266 22.5892 144.725 22.1339C144.183 21.6785 143.916 20.9714 143.916 20.0124V12.8874H142.63V9.57137H143.916V7.51423L149.058 6.22852V9.57137H150.832V12.8874H149.058Z" fill="black"/>
</svg>
