<svg width="56" height="56" viewBox="0 0 56 56" fill="none" xmlns="http://www.w3.org/2000/svg">
<path d="M6.81956 49.1817C2.26987 44.6427 0 37.5755 0 28C0 18.4245 2.24996 11.2677 6.75982 6.75862C11.2697 2.25951 18.3481 0 28.005 0C37.6619 0 44.7403 2.25951 49.2402 6.75862C53.75 11.2677 56 18.3448 56 28C56 37.6552 53.7401 44.7323 49.2402 49.2414C44.7303 53.7504 37.6519 56 28.005 56C18.358 56 11.3593 53.7305 6.81956 49.1817Z" fill="#1AA4D9"/>
<path d="M33.5 47.5C41.232 47.5 47.5 41.232 47.5 33.5C47.5 25.768 41.232 19.5 33.5 19.5C25.768 19.5 19.5 25.768 19.5 33.5C19.5 41.232 25.768 47.5 33.5 47.5Z" fill="white"/>
</svg>
